REM DIRINDEX 1\2,1\4,1\3\5,1\3\6,1\3\7
REM DIRNAME cjc083,folder01,folder02,folder03,folder04,folder05,folder06
TITLE ""
FILE "CD1Track68.mp3" MP3
  TRACK 01 AUDIO
    TITLE "0:"
    INDEX 01 00:00:00
  TRACK 02 AUDIO
    TITLE "5:cjc083_1375"
    INDEX 01 00:00:27
  TRACK 03 AUDIO
    TITLE "0:"
    INDEX 01 00:01:46
  TRACK 04 AUDIO
    TITLE "6:cjc083_1376"
    INDEX 01 00:02:16
  TRACK 05 AUDIO
    TITLE "0:"
    INDEX 01 00:04:33
  TRACK 06 AUDIO
    TITLE "5:cjc083_1377"
    INDEX 01 00:04:74
  TRACK 07 AUDIO
    TITLE "0:"
    INDEX 01 00:06:06
  TRACK 08 AUDIO
    TITLE "6:cjc083_1378"
    INDEX 01 00:06:47
  TRACK 09 AUDIO
    TITLE "0:"
    INDEX 01 00:07:51
  TRACK 10 AUDIO
    TITLE "5:cjc083_1379"
    INDEX 01 00:08:17
  TRACK 11 AUDIO
    TITLE "0:"
    INDEX 01 00:09:24
  TRACK 12 AUDIO
    TITLE "6:cjc083_1380"
    INDEX 01 00:09:69
  TRACK 13 AUDIO
    TITLE "0:"
    INDEX 01 00:11:09
  TRACK 14 AUDIO
    TITLE "5:cjc083_1381"
    INDEX 01 00:11:54
  TRACK 15 AUDIO
    TITLE "0:"
    INDEX 01 00:13:12
  TRACK 16 AUDIO
    TITLE "6:cjc083_1382"
    INDEX 01 00:13:59
  TRACK 17 AUDIO
    TITLE "0:"
    INDEX 01 00:15:60
  TRACK 18 AUDIO
    TITLE "5:cjc083_1383"
    INDEX 01 00:16:28
  TRACK 19 AUDIO
    TITLE "0:"
    INDEX 01 00:17:55
  TRACK 20 AUDIO
    TITLE "6:cjc083_1384"
    INDEX 01 00:18:25
  TRACK 21 AUDIO
    TITLE "0:"
    INDEX 01 00:19:54
  TRACK 22 AUDIO
    TITLE "5:cjc083_1385"
    INDEX 01 00:20:24
  TRACK 23 AUDIO
    TITLE "0:"
    INDEX 01 00:22:09
  TRACK 24 AUDIO
    TITLE "6:cjc083_1386"
    INDEX 01 00:22:56
  TRACK 25 AUDIO
    TITLE "0:"
    INDEX 01 00:24:51
  TRACK 26 AUDIO
    TITLE "5:cjc083_1387"
    INDEX 01 00:25:17
  TRACK 27 AUDIO
    TITLE "0:"
    INDEX 01 00:26:42
  TRACK 28 AUDIO
    TITLE "6:cjc083_1388"
    INDEX 01 00:27:08
  TRACK 29 AUDIO
    TITLE "0:"
    INDEX 01 00:28:39
  TRACK 30 AUDIO
    TITLE "5:cjc083_1389"
    INDEX 01 00:29:05
  TRACK 31 AUDIO
    TITLE "0:"
    INDEX 01 00:30:52
  TRACK 32 AUDIO
    TITLE "6:cjc083_1390"
    INDEX 01 00:31:22
  TRACK 33 AUDIO
    TITLE "0:"
    INDEX 01 00:33:46
  TRACK 34 AUDIO
    TITLE "5:cjc083_1391"
    INDEX 01 00:34:14
  TRACK 35 AUDIO
    TITLE "0:"
    INDEX 01 00:35:27
  TRACK 36 AUDIO
    TITLE "6:cjc083_1392"
    INDEX 01 00:35:72
  TRACK 37 AUDIO
    TITLE "0:"
    INDEX 01 00:37:40
  TRACK 38 AUDIO
    TITLE "5:cjc083_1393"
    INDEX 01 00:38:04
  TRACK 39 AUDIO
    TITLE "0:"
    INDEX 01 00:39:31
  TRACK 40 AUDIO
    TITLE "6:cjc083_1394"
    INDEX 01 00:40:05
  TRACK 41 AUDIO
    TITLE "0:"
    INDEX 01 00:41:30
  TRACK 42 AUDIO
    TITLE "5:cjc083_1395"
    INDEX 01 00:42:00
  TRACK 43 AUDIO
    TITLE "0:"
    INDEX 01 00:43:09
  TRACK 44 AUDIO
    TITLE "6:cjc083_1396"
    INDEX 01 00:43:52
  TRACK 45 AUDIO
    TITLE "0:"
    INDEX 01 00:44:63
  TRACK 46 AUDIO
    TITLE "5:cjc083_1397"
    INDEX 01 00:45:30
  TRACK 47 AUDIO
    TITLE "0:"
    INDEX 01 00:46:31
  TRACK 48 AUDIO
    TITLE "6:cjc083_1398"
    INDEX 01 00:47:01
  TRACK 49 AUDIO
    TITLE "0:"
    INDEX 01 00:48:46
  TRACK 50 AUDIO
    TITLE "5:cjc083_1399"
    INDEX 01 00:49:12
  TRACK 51 AUDIO
    TITLE "0:"
    INDEX 01 00:50:31
  TRACK 52 AUDIO
    TITLE "6:cjc083_1400"
    INDEX 01 00:51:03
  TRACK 53 AUDIO
    TITLE "0:"
    INDEX 01 00:52:45
  TRACK 54 AUDIO
    TITLE "5:cjc083_1401"
    INDEX 01 00:53:15
  TRACK 55 AUDIO
    TITLE "0:"
    INDEX 01 00:54:34
  TRACK 56 AUDIO
    TITLE "6:cjc083_1402"
    INDEX 01 00:54:74
  TRACK 57 AUDIO
    TITLE "0:"
    INDEX 01 00:57:25
  TRACK 58 AUDIO
    TITLE "5:cjc083_1403"
    INDEX 01 00:57:66
  TRACK 59 AUDIO
    TITLE "0:"
    INDEX 01 00:59:63
  TRACK 60 AUDIO
    TITLE "6:cjc083_1404"
    INDEX 01 01:00:27
  TRACK 61 AUDIO
    TITLE "0:"
    INDEX 01 01:02:18
  TRACK 62 AUDIO
    TITLE "7:cjc083_1405"
    INDEX 01 01:03:57
  TRACK 63 AUDIO
    TITLE "0:"
    INDEX 01 01:15:09
